PathFileType	4	(X/Y/Z)	OpenSim_Sub08_EMGStiffKnee_Magnet.trc
DataRate	CameraRate	NumFrames	NumMarkers	Units	OrigDataRate	OrigDataStartFrame	OrigNumFrames
100	100	20	8	m	100	4726	6301
Frame#	Time	torso_imu_offset_imu	pelvis_imu_offset_imu	tibia_r_imu_offset_imu	femur_r_imu_offset_imu	tibia_l_imu_offset_imu	femur_l_imu_offset_imu	toes_r_imu_offset_imu	toes_l_imu_offset_imu
				X1	Y1	Z1	X2	Y2	Z2	X3	Y3	Z3	X4	Y4	Z4	X5	Y5	Z5	X6	Y6	Z6	X7	Y7	Z7	X8		Y8	Z8	

4726	47.25000000	-0.92583869	-0.14597900	0.15574053	-0.56571686	0.21394536	-0.72446816	-0.52399391	-0.65278642	-0.04769849	-0.65550873	-0.53701924	-0.04939839	-0.77545929	0.19967747	0.16056909	-0.79112621	0.07795852	0.27803288	-0.67518414	-0.40515959	-0.50162757	-0.56979575	-0.21903391	-0.56291165
4727	47.26000000	-0.92634615	-0.14766866	0.15136519	-0.57660468	0.22246884	-0.72262620	-0.50848186	-0.66248160	-0.05757601	-0.64681062	-0.54051147	-0.05686904	-0.77095145	0.20561216	0.16655426	-0.78422275	0.07566860	0.28731159	-0.68355376	-0.41254636	-0.49167948	-0.58259264	-0.22954929	-0.53543358
4728	47.27000000	-0.93076523	-0.14393169	0.14242251	-0.57137290	0.22199588	-0.72238432	-0.50872477	-0.66392157	-0.05404896	-0.64532405	-0.54108176	-0.07661248	-0.76650156	0.20792584	0.17344356	-0.78205245	0.07394750	0.29784469	-0.68755880	-0.40641165	-0.47773102	-0.60366217	-0.22455709	-0.51085326
4729	47.28000000	-0.93250282	-0.14793099	0.13808253	-0.57014038	0.22237973	-0.72053576	-0.49686059	-0.66721207	-0.06951865	-0.64182509	-0.55194909	-0.07844171	-0.76198029	0.21496377	0.18186276	-0.77848716	0.07966332	0.29405031	-0.69466252	-0.40942813	-0.46942076	-0.62573879	-0.22324456	-0.48400984
4730	47.29000000	-0.93235959	-0.14350180	0.12880201	-0.57152002	0.22408264	-0.72502188	-0.48258738	-0.68135617	-0.06861161	-0.63182465	-0.55935645	-0.09185463	-0.75602077	0.22375863	0.18822679	-0.78310340	0.09159213	0.28526533	-0.70895624	-0.41080319	-0.45684201	-0.64044382	-0.22600250	-0.46227139
4731	47.30000000	-0.93066973	-0.14388114	0.12074064	-0.56263188	0.21907246	-0.71992233	-0.47544284	-0.68327296	-0.08017819	-0.63409632	-0.55906762	-0.09691195	-0.75568073	0.22975089	0.19695895	-0.78055406	0.08947656	0.28096621	-0.71532461	-0.40737075	-0.44117815	-0.65245213	-0.22771943	-0.44425679
4732	47.31000000	-0.93491615	-0.14376762	0.11827890	-0.56343176	0.21145293	-0.72273674	-0.45858430	-0.69377577	-0.08408422	-0.62449416	-0.56146256	-0.11240996	-0.74749928	0.23230846	0.20565845	-0.78117998	0.09551537	0.27688183	-0.73039307	-0.40915711	-0.41164078	-0.66936168	-0.22399571	-0.42450586
4733	47.32000000	-0.93242884	-0.14384239	0.10944592	-0.56726119	0.20825278	-0.72687483	-0.44993757	-0.69818589	-0.09311566	-0.61720605	-0.56505558	-0.11423970	-0.75223574	0.23830184	0.21436307	-0.78317750	0.08619820	0.28218571	-0.74495063	-0.40186221	-0.38927890	-0.66882181	-0.22874568	-0.41371534
4734	47.33000000	-0.93267212	-0.14365463	0.10514453	-0.56961146	0.19159992	-0.72625289	-0.43058897	-0.71059162	-0.10179286	-0.62154941	-0.56511585	-0.12365158	-0.74427189	0.23938218	0.22585740	-0.78210942	0.08173923	0.28904473	-0.75708347	-0.41157384	-0.36138556	-0.67794494	-0.22874038	-0.39974339
4735	47.34000000	-0.93258470	-0.14141351	0.09837460	-0.58008061	0.18787052	-0.72800225	-0.42026028	-0.71678815	-0.11469215	-0.62160309	-0.56704376	-0.13047223	-0.73647643	0.25720781	0.23496769	-0.77577669	0.07382253	0.29863898	-0.76951954	-0.41643963	-0.32781998	-0.67938706	-0.23354807	-0.38714593
4736	47.35000000	-0.93269328	-0.13930563	0.09375913	-0.58400467	0.17945757	-0.72002938	-0.40440212	-0.72666806	-0.12088303	-0.62557521	-0.56502400	-0.13671207	-0.73434558	0.26581340	0.23436575	-0.77795449	0.07596539	0.30890705	-0.78249803	-0.41367729	-0.29521063	-0.68249142	-0.23260363	-0.38813138
4737	47.36000000	-0.93526644	-0.13483706	0.08760860	-0.58768572	0.18012244	-0.71382322	-0.38568617	-0.72680288	-0.12692627	-0.62308134	-0.56702335	-0.13752427	-0.72538888	0.28145636	0.23562037	-0.77342500	0.07484603	0.30911602	-0.79348060	-0.42657811	-0.26517228	-0.69121077	-0.22620723	-0.38453181
4738	47.37000000	-0.93968396	-0.13055801	0.08925401	-0.58648628	0.18224043	-0.71432720	-0.37147661	-0.73505411	-0.12458517	-0.62377524	-0.56259951	-0.15362169	-0.71980545	0.29192412	0.23811871	-0.77428732	0.09313901	0.31493999	-0.79396868	-0.43259615	-0.22537276	-0.69141934	-0.22674528	-0.37359322
4739	47.38000000	-0.93933390	-0.12706968	0.08247295	-0.59638985	0.18371531	-0.71352689	-0.36066142	-0.73724734	-0.12811998	-0.62836674	-0.56061091	-0.15826450	-0.71723795	0.30353624	0.24843393	-0.77213638	0.11085698	0.30803750	-0.80320740	-0.44367534	-0.19483975	-0.70029191	-0.22650683	-0.37196885
4740	47.39000000	-0.93970063	-0.12849483	0.08273883	-0.59031926	0.17995982	-0.70683168	-0.34611029	-0.74791249	-0.11353580	-0.63167686	-0.55578494	-0.16690207	-0.70650533	0.31544003	0.25218489	-0.76375912	0.13184219	0.31546065	-0.79389223	-0.45849230	-0.16271381	-0.69956945	-0.22497623	-0.36963392
4741	47.40000000	-0.94149482	-0.12286264	0.07535706	-0.60175636	0.18620130	-0.71006049	-0.33739757	-0.75431030	-0.10239475	-0.62610611	-0.54809694	-0.16201704	-0.70498096	0.31297433	0.26386889	-0.75816039	0.14113799	0.31933485	-0.79227555	-0.47431087	-0.12746660	-0.69772141	-0.22867455	-0.36741309
4742	47.41000000	-0.93678131	-0.12682850	0.06908982	-0.60271978	0.18130681	-0.70894161	-0.31955438	-0.76467210	-0.09109549	-0.63523879	-0.54791262	-0.16235502	-0.70467200	0.32258525	0.27167480	-0.75867597	0.15955676	0.32114377	-0.78894939	-0.48516671	-0.10921599	-0.70254560	-0.22239804	-0.36252794
4743	47.42000000	-0.93552975	-0.12268518	0.06472962	-0.60100973	0.18291729	-0.70503347	-0.30366501	-0.76835959	-0.07857553	-0.64130837	-0.54218866	-0.16008951	-0.69818640	0.32822968	0.27616393	-0.75367216	0.15417778	0.32386077	-0.77820467	-0.50062726	-0.11355485	-0.70419799	-0.22976942	-0.35628909
4744	47.43000000	-0.93985508	-0.12681688	0.06047412	-0.60306213	0.19226683	-0.71011632	-0.29775490	-0.77277686	-0.05945662	-0.64545309	-0.54411140	-0.15786780	-0.69342449	0.32844707	0.28466096	-0.74745446	0.15709970	0.33034395	-0.77194022	-0.50171332	-0.11651631	-0.70384755	-0.23358013	-0.35888809
4745	47.44000000	-0.94198557	-0.12013192	0.06100420	-0.60135319	0.18331480	-0.70696048	-0.28862507	-0.77631790	-0.06310973	-0.64981038	-0.53826545	-0.15536992	-0.68761883	0.33549502	0.28353835	-0.74813554	0.15624347	0.33317682	-0.76093761	-0.50915050	-0.13338368	-0.70178305	-0.23601818	-0.35840980
